<svg width="50" height="34" viewBox="0 0 50 34" fill="none" xmlns="http://www.w3.org/2000/svg">
<path d="M12.7472 0.53125C19.1812 0.53125 24.4202 5.76725 24.4202 12.2052C24.4202 18.9393 18.1342 28.2183 12.8962 32.8592H5.11617C7.06117 29.8652 8.85517 26.5723 9.90217 23.2793C3.91717 22.2323 1.07617 17.1432 1.07617 12.2052C1.07517 5.76725 6.30917 0.53125 12.7472 0.53125Z" fill="white" stroke="white"/>
<path d="M37.7941 0.53125C44.2271 0.53125 49.4661 5.76725 49.4661 12.2052C49.4661 18.9393 43.1801 28.2183 37.9411 32.8592H30.1611C32.1081 29.8652 33.9011 26.5723 34.9481 23.2793C28.9621 22.2323 26.1211 17.1432 26.1211 12.2052C26.1201 5.76725 31.3561 0.53125 37.7941 0.53125Z" fill="white" stroke="white"/>
</svg>
